<?xml version="1.0" encoding="utf-8"?>
<!-- Generator: Adobe Illustrator 20.1.0, SVG Export Plug-In . SVG Version: 6.00 Build 0)  -->
<svg version="1.1" id="Layer_1" xmlns="http://www.w3.org/2000/svg" xmlns:xlink="http://www.w3.org/1999/xlink" x="0px" y="0px"
	 viewBox="0 0 103.3 66.7" style="enable-background:new 0 0 103.3 66.7;" xml:space="preserve">
<style type="text/css">
	.st0{fill:#58595B;}
</style>
<g>
	<g>
		<path class="st0" d="M3.4,3.7C5.2,3.3,7.9,2.1,9.2,1c0.5-0.4,1-0.6,1.4-0.6c0.3,0,0.5,0.4,0.5,1c0,1.1-0.1,3.8,0,4.9
			c0,0.3,0.1,0.9,0.6,0.6c3.2-3,8.4-6.1,12.4-6.1c4.7,0,7.9,2.1,10.2,6.6c0.1,0.2,0.6,0.3,0.7,0.2c4.2-4.1,8.8-6.9,13.9-6.9
			c5.6,0,8.9,3.4,10.2,7.3c0.7,2,1.1,5.8,1.2,9.5l0.4,14.3c0.1,3.2,0.5,4,2.9,4.4c1.5,0.3,1.9,0.6,1.9,0.9c0,0.5-0.5,0.7-1.7,0.7
			c-1.1,0-4.3-0.2-6.6-0.2c-2.4,0-4.1,0.3-5.6,0.3c-1.3,0-2-0.2-2-0.6c0-0.5,0.9-0.8,1.8-1c3.2-0.6,3.6-1.5,3.7-4.5
			c0.2-12-0.4-16.6-0.8-19.8c-0.8-5.1-3.5-7.9-8.8-7.9c-4.2,0-7.6,2.3-9.5,4.2c-0.4,0.4-0.8,1.6-0.8,3.8c0.1,2.3,0.5,17.4,0.7,20.1
			c0.3,2.8,0.6,3.5,3.2,4.1c1.2,0.4,1.6,0.5,1.6,0.9c0,0.4-0.5,0.6-1.7,0.6c-1.1,0-4.8-0.2-7-0.2c-2.2,0-4.4,0.2-5.5,0.2
			c-1,0-1.5-0.2-1.5-0.6c0-0.3,0.5-0.7,1.9-1C29,35.8,30,35.4,30,33l0.1-16.2c0-5.6-0.6-8-2.6-10.2C25.9,5,24.3,4.2,21,4.2
			c-3.9,0-6.6,2-8.3,3.4c-1.1,1-1.3,2-1.4,2.9c-0.1,1-0.4,3.4-0.4,6.4c0,5.8,0.4,14.1,0.6,15.8c0.2,1.7,0.9,3.2,3.4,3.6
			c1.1,0.2,1.5,0.5,1.5,0.8c0,0.5-0.8,0.7-1.5,0.7c-1.9,0-5-0.2-7.4-0.2c-2.6,0-4.8,0.2-5.7,0.2S0,37.5,0,37.1s0.6-0.7,2-0.9
			c3.4-0.7,3.2-2,3.4-2.9c0.4-2.3,0.4-8.8,0.4-15.4c0-4.3,0.1-6.7-0.1-8.7c-0.1-2-0.8-2.9-2.4-3.8c-0.7-0.4-1-0.6-1-1
			C2.3,4.1,2.6,4,3.4,3.7z"/>
		<path class="st0" d="M99.2,5.6c3,3.4,4.1,7.7,4.1,11.5c0,11.7-6.9,17-12.9,19.9c-1.7,0.8-4.4,1.6-7.4,1.6c-2.1,0-5.5-0.5-6.5-0.9
			c-0.4-0.2-0.8,0.5-0.9,1c-0.4,1.7-0.3,12.2-0.1,17c0.2,4.8,0.3,5.8,0.9,7c0.7,1.4,2.5,1.8,5,2.2c0.9,0.2,1.4,0.4,1.4,0.8
			c0,0.4-0.5,0.7-1.8,0.7c-1.5,0-4.8-0.4-8.1-0.4c-3.3,0-6.3,0.7-7.5,0.7c-1.2,0-1.8-0.2-1.8-0.6c0-0.3,0.4-0.7,2.1-1
			c3.7-1,4.2-2.4,4.4-4.8c0.1-1.8,0.2-5.4,0.2-12.7c0-7.1-0.2-33.4-0.3-35.9c-0.2-4.3-0.1-4.8-2.6-6.1c-0.5-0.3-0.9-0.6-0.9-0.8
			c0-0.4,0.5-0.7,1.2-0.9c0.9-0.4,4.4-1.8,6.4-3.3c0.6-0.4,1-0.6,1.3-0.6c0.3,0,0.4,0.4,0.4,0.8c0,0.6-0.2,3.4-0.2,4.4
			c0,0.2,0.2,0.6,0.5,0.3c4.5-3.3,7.9-4.8,12.6-4.8C92.9,0.7,96.9,3.1,99.2,5.6z M92,34.3c3.4-2.8,6.1-7.7,6.1-14.9
			c0-4.3-2-9.5-4.6-12C91.7,5.7,89.3,4,85.1,4c-2.9,0-5.9,0.6-8.3,2.3c-0.9,0.6-1.1,0.7-1.3,2.5c-0.2,2.3-0.2,18,0,19.8
			c0.1,0.9,0.2,1.2,0.6,2.3c1.7,3.7,6.5,5.4,10.5,5.4C88.1,36.3,90.2,35.9,92,34.3z"/>
	</g>
</g>
</svg>
